<?xml version="1.0" encoding="UTF-8" standalone="no"?>
<svg
   svg:contrastcolor="C1A0DA"
   svg:template="Contrast"
   svg:presentation="2.5"
   svg:layouttype="undefined"
   svg:specialfontid="undefined"
   svg:id1="072"
   svg:id2="029"
   svg:companyname="Zephyr Graph"
   svg:companytagline=""
   version="1.1"
   viewBox="0 0 140 140"
   id="svg15"
   sodipodi:docname="logo.svg"
   xml:space="preserve"
   inkscape:version="1.4 (86a8ad7, 2024-10-11)"
   width="140"
   height="140"
   xmlns:inkscape="http://www.inkscape.org/namespaces/inkscape"
   xmlns:sodipodi="http://sodipodi.sourceforge.net/DTD/sodipodi-0.dtd"
   xmlns="http://www.w3.org/2000/svg"
   xmlns:svg="http://www.w3.org/2000/svg"><defs
     id="defs15" /><sodipodi:namedview
     id="namedview15"
     pagecolor="#ffffff"
     bordercolor="#000000"
     borderopacity="0.25"
     inkscape:showpageshadow="2"
     inkscape:pageopacity="0.0"
     inkscape:pagecheckerboard="0"
     inkscape:deskcolor="#d1d1d1"
     inkscape:zoom="2.4829787"
     inkscape:cx="275.47558"
     inkscape:cy="235"
     inkscape:window-width="3440"
     inkscape:window-height="1369"
     inkscape:window-x="-8"
     inkscape:window-y="224"
     inkscape:window-maximized="1"
     inkscape:current-layer="svg15"
     showgrid="false" /><g
     fill="#101820"
     fill-rule="none"
     stroke="none"
     stroke-width="1"
     stroke-linecap="butt"
     stroke-linejoin="miter"
     stroke-miterlimit="10"
     stroke-dasharray="none"
     stroke-dashoffset="0"
     font-family="none"
     font-weight="none"
     font-size="none"
     text-anchor="none"
     style="mix-blend-mode:normal;fill:#2b0883;fill-opacity:1"
     id="g2"
     transform="matrix(0.9996432,0,0,1.0007925,-204.90185,-132.70036)"><g
       data-paper-data="{&quot;isGlobalGroup&quot;:true,&quot;bounds&quot;:{&quot;x&quot;:65,&quot;y&quot;:132.59527120483793,&quot;width&quot;:420,&quot;height&quot;:204.80945759032417}}"
       id="g1"
       style="fill:#2b0883;fill-opacity:1"><g
         data-paper-data="{&quot;fillRule&quot;:&quot;evenodd&quot;,&quot;fillRuleOriginal&quot;:&quot;evenodd&quot;,&quot;isIcon&quot;:true,&quot;iconStyle&quot;:&quot;standalone&quot;,&quot;selectedEffects&quot;:{&quot;container&quot;:&quot;&quot;,&quot;transformation&quot;:&quot;&quot;,&quot;pattern&quot;:&quot;&quot;},&quot;bounds&quot;:{&quot;x&quot;:204.97501274096632,&quot;y&quot;:132.59527120483793,&quot;width&quot;:140.04997451806733,&quot;height&quot;:139.88914143694885},&quot;iconType&quot;:&quot;icon&quot;,&quot;isDetailed&quot;:false,&quot;source&quot;:&quot;noun&quot;,&quot;rawIconId&quot;:&quot;4033925&quot;,&quot;suitableAsStandaloneIcon&quot;:true}"
         fill-rule="evenodd"
         id="element-id-85086"
         style="fill:#2b0883;fill-opacity:1"><path
           d="m 324.61856,153.02489 c -12.19777,-12.20428 -28.46986,-19.47873 -45.6984,-20.42961 h -0.0933 c -1.62605,0.0243 -2.95781,1.31993 -3.01605,2.95606 -0.10007,1.72631 1.20892,3.21111 2.93416,3.32829 34.37782,1.99092 60.98405,30.88397 60.13994,65.30908 -0.8439,34.42511 -28.83422,61.97947 -63.26854,62.28319 -34.43409,0.30371 -62.90595,-26.75272 -64.35702,-61.15769 -0.10565,-1.72261 -1.55941,-3.05043 -3.28451,-2.99985 -0.83447,0.0326 -1.62197,0.3948 -2.18967,1.00725 -0.45105,0.49837 -0.73243,1.12286 -0.81018,1.7837 v 0.86623 c 1.5802,31.08236 23.48727,57.42277 53.805,64.61496 30.4675,7.22788 62.03203,-6.63645 77.32205,-33.96265 15.28981,-27.3262 10.59318,-61.48001 -11.5054,-83.66465 z m -49.57412,108.10399 c 31.68912,0.1951 57.77334,-24.87443 58.83511,-56.54647 1.06199,-31.67182 -23.28473,-58.43208 -54.9156,-60.36 -1.7294,-0.0665 -3.18509,1.28146 -3.25166,3.01079 -0.0666,1.72934 1.28139,3.18514 3.01079,3.25166 23.12444,1.64917 42.3966,18.3398 47.33146,40.99171 4.93508,22.65191 -5.64738,45.84665 -25.99029,56.96579 -20.34269,11.11892 -45.57973,7.50269 -61.98145,-8.88174 -1.22161,-1.17914 -3.15772,-1.17914 -4.37934,0 -1.15681,1.23059 -1.15681,3.14874 0,4.37934 10.9385,11.01076 25.82036,17.19833 41.34097,17.18891 z m 40.66458,-57.1333 c 0.73069,-21.5089 -15.40761,-39.87016 -36.83265,-41.90546 l -0.32845,-0.0876 c -1.64335,-0.0942 -2.90898,-1.48635 -2.84657,-3.13123 0.11255,-1.6705 1.47934,-2.98036 3.15313,-3.02175 h 0.56932 c 24.53306,2.56695 42.90044,23.67427 42.05304,48.32667 -0.84718,24.65261 -20.62033,44.44898 -45.27186,45.32551 -1.70882,0.0245 -3.11721,-1.33504 -3.15313,-3.04364 -6.6e-4,-1.70772 1.35847,-3.10561 3.06554,-3.15313 21.51372,-0.57676 38.86094,-17.80026 39.59164,-39.30939 z m -19.66564,19.62426 c 8.50512,-8.49548 11.05345,-21.27856 6.45624,-32.38587 -4.59721,-11.10754 -15.43389,-18.35075 -27.45517,-18.35075 -12.02129,0 -22.85796,7.24321 -27.45517,18.35075 -4.59721,11.10732 -2.04888,23.89039 6.45624,32.38587 11.61116,11.56408 30.38671,11.56408 41.99786,0 z"
           data-paper-data="{&quot;isPathIcon&quot;:true}"
           id="element-id-30748"
           style="fill:#2b0883;fill-opacity:1" /></g></g></g></svg>
