<?xml version="1.0" encoding="UTF-8" standalone="no"?>
<svg
   svg:contrastcolor="C1A0DA"
   svg:template="Contrast"
   svg:presentation="2.5"
   svg:layouttype="undefined"
   svg:specialfontid="undefined"
   svg:id1="072"
   svg:id2="029"
   svg:companyname="Zephyr Graph"
   svg:companytagline=""
   version="1.1"
   viewBox="0 0 420 205"
   id="svg15"
   sodipodi:docname="logo_full_inverse.svg"
   xml:space="preserve"
   inkscape:version="1.4 (86a8ad7, 2024-10-11)"
   width="420"
   height="205"
   xmlns:inkscape="http://www.inkscape.org/namespaces/inkscape"
   xmlns:sodipodi="http://sodipodi.sourceforge.net/DTD/sodipodi-0.dtd"
   xmlns="http://www.w3.org/2000/svg"
   xmlns:svg="http://www.w3.org/2000/svg"><defs
     id="defs15" /><sodipodi:namedview
     id="namedview15"
     pagecolor="#ffffff"
     bordercolor="#000000"
     borderopacity="0.25"
     inkscape:showpageshadow="2"
     inkscape:pageopacity="0.0"
     inkscape:pagecheckerboard="0"
     inkscape:deskcolor="#d1d1d1"
     inkscape:zoom="2.4829787"
     inkscape:cx="275.67695"
     inkscape:cy="235"
     inkscape:window-width="3440"
     inkscape:window-height="1369"
     inkscape:window-x="-8"
     inkscape:window-y="224"
     inkscape:window-maximized="1"
     inkscape:current-layer="svg15" /><g
     fill="#101820"
     fill-rule="none"
     stroke="none"
     stroke-width="1"
     stroke-linecap="butt"
     stroke-linejoin="miter"
     stroke-miterlimit="10"
     stroke-dasharray="none"
     stroke-dashoffset="0"
     font-family="none"
     font-weight="none"
     font-size="none"
     text-anchor="none"
     style="mix-blend-mode:normal;fill:#ffffff;fill-opacity:1"
     id="g2"
     transform="matrix(1,0,0,1.0009304,-65,-132.71864)"><g
       data-paper-data="{&quot;isGlobalGroup&quot;:true,&quot;bounds&quot;:{&quot;x&quot;:65,&quot;y&quot;:132.59527120483793,&quot;width&quot;:420,&quot;height&quot;:204.80945759032417}}"
       id="g1"
       style="fill:#ffffff;fill-opacity:1"><g
         data-paper-data="{&quot;isPrimaryText&quot;:true}"
         fill-rule="nonzero"
         id="element-id-59746"
         style="fill:#ffffff;fill-opacity:1"><path
           d="M 94.627,299.67826 H 66.38544 c 0,3.25044 0,5.27531 0,8.52575 H 80.23979 L 65,335.53971 v 1.43872 h 29.78686 c 0,-3.25044 0,-5.27531 0,-8.52575 H 79.33393 L 94.627,301.11698 Z"
           data-paper-data="{&quot;glyphName&quot;:&quot;Z&quot;,&quot;glyphIndex&quot;:0,&quot;firstGlyphOfWord&quot;:true,&quot;word&quot;:1}"
           id="element-id-14719"
           style="fill:#ffffff;fill-opacity:1" /><path
           d="m 124.36057,299.67826 c -8.7389,0 -14.65364,0 -23.28597,0 0,12.36234 0,24.83126 0,37.30018 8.63233,0 15.02664,0 23.76554,0 0,-2.82416 0,-5.7016 0,-8.47247 -5.59503,0 -8.79218,0 -14.28064,0 0,-2.23801 0,-4.36945 0,-6.55417 h 12.68206 c 0,-2.82416 0,-5.64831 0,-8.47247 H 110.5595 v -5.27531 c 5.48845,0 8.25933,0 13.80107,0 0,-2.87744 0,-5.75488 0,-8.52575 z"
           data-paper-data="{&quot;glyphName&quot;:&quot;E&quot;,&quot;glyphIndex&quot;:1,&quot;word&quot;:1}"
           id="element-id-1348"
           style="fill:#ffffff;fill-opacity:1" /><path
           d="m 142.58437,336.97844 v -9.53819 h 6.87389 c 17.8508,0 17.8508,-27.7087 0,-27.76199 -5.48845,0 -11.0302,0 -16.41208,0 0,12.46892 0,24.88455 0,37.30018 3.14387,0 6.34103,0 9.53819,0 z m 6.8206,-18.11723 h -6.8206 c 0,-3.0373 0,-7.61989 0,-10.65719 2.18472,0 4.58259,-0.0533 6.8206,0 5.54174,0.0533 5.22202,10.65719 0,10.65719 z"
           data-paper-data="{&quot;glyphName&quot;:&quot;P&quot;,&quot;glyphIndex&quot;:2,&quot;word&quot;:1}"
           id="element-id-79044"
           style="fill:#ffffff;fill-opacity:1" /><path
           d="m 201.09236,299.67826 c -3.25044,0 -6.50089,0 -9.75133,0 v 13.53464 h -11.50977 v -13.53464 c -3.25044,0 -6.55417,0 -9.75133,0 v 37.30018 c 3.19716,0 6.50089,0 9.75133,0 v -14.97336 h 11.50977 v 14.97336 c 3.25044,0 6.50089,0 9.75133,0 z"
           data-paper-data="{&quot;glyphName&quot;:&quot;H&quot;,&quot;glyphIndex&quot;:3,&quot;word&quot;:1}"
           id="element-id-40295"
           style="fill:#ffffff;fill-opacity:1" /><path
           d="m 228.32149,321.31237 12.57549,-20.19538 v -1.43872 H 230.5595 l -6.76732,12.41563 h -0.373 l -6.76732,-12.41563 h -10.28419 v 1.43872 l 12.5222,20.19538 v 15.66607 h 9.43162 z"
           data-paper-data="{&quot;glyphName&quot;:&quot;Y&quot;,&quot;glyphIndex&quot;:4,&quot;word&quot;:1}"
           id="element-id-66588"
           style="fill:#ffffff;fill-opacity:1" /><path
           d="m 270.25755,323.76352 c 9.43162,-6.39432 6.76732,-24.03197 -7.88632,-24.08526 -5.43517,0 -10.97691,0 -16.35879,0 0,12.46892 0,24.88455 0,37.30018 3.09059,0 6.34103,0 9.53819,0 v -10.97691 h 4.9556 l 6.39432,10.97691 h 10.65719 V 335.593 Z m -7.88632,-6.23446 h -6.8206 c 0,-2.98401 0,-6.28774 0,-9.32504 2.23801,0 4.58259,-0.0533 6.8206,0 5.43517,0.0533 5.16874,9.32504 0,9.32504 z"
           data-paper-data="{&quot;glyphName&quot;:&quot;R&quot;,&quot;glyphIndex&quot;:5,&quot;lastGlyphOfWord&quot;:true,&quot;word&quot;:1}"
           id="element-id-4515"
           style="fill:#ffffff;fill-opacity:1" /><path
           d="m 295.67496,318.32835 c 0.0533,12.73535 9.64476,19.07638 19.12966,19.07638 6.87389,0 13.96092,-2.98401 16.62522,-10.76377 1.27886,-3.62345 1.27886,-7.19361 1.06572,-10.92362 H 314.8579 v 8.25933 h 7.93961 c -1.70515,3.57016 -4.15631,4.58259 -7.9929,4.58259 -5.64831,0 -9.27176,-4.04973 -9.27176,-10.23091 0,-5.7016 3.25044,-10.39076 9.27176,-10.39076 3.7833,0 6.23446,1.27886 7.77975,4.47602 h 9.37833 c -1.81172,-9.27176 -9.64476,-13.16163 -17.15808,-13.21492 -9.4849,0 -19.07638,6.39432 -19.12966,19.12966 z"
           data-paper-data="{&quot;glyphName&quot;:&quot;G&quot;,&quot;glyphIndex&quot;:6,&quot;firstGlyphOfWord&quot;:true,&quot;word&quot;:2}"
           id="element-id-40773"
           style="fill:#ffffff;fill-opacity:1" /><path
           d="m 364.254,323.76352 c 9.43162,-6.39432 6.76732,-24.03197 -7.88632,-24.08526 -5.43517,0 -10.97691,0 -16.35879,0 0,12.46892 0,24.88455 0,37.30018 3.09059,0 6.34103,0 9.53819,0 v -10.97691 h 4.9556 l 6.39432,10.97691 h 10.65719 V 335.593 Z m -7.88633,-6.23446 h -6.8206 c 0,-2.98401 0,-6.28774 0,-9.32504 2.23801,0 4.58259,-0.0533 6.8206,0 5.43517,0.0533 5.16874,9.32504 0,9.32504 z"
           data-paper-data="{&quot;glyphName&quot;:&quot;R&quot;,&quot;glyphIndex&quot;:7,&quot;word&quot;:2}"
           id="element-id-65936"
           style="fill:#ffffff;fill-opacity:1" /><path
           d="m 402.72647,336.97844 h 9.32504 V 335.593 l -16.83837,-36.39432 h -4.10302 L 374.32504,335.593 v 1.38544 h 9.32504 l 2.18472,-4.68917 h 14.70693 z m -5.27532,-12.84192 h -8.52575 l 4.20959,-9.80462 z"
           data-paper-data="{&quot;glyphName&quot;:&quot;A&quot;,&quot;glyphIndex&quot;:8,&quot;word&quot;:2}"
           id="element-id-60976"
           style="fill:#ffffff;fill-opacity:1" /><path
           d="m 426.49201,336.97844 v -9.53819 h 6.87389 c 17.8508,0 17.8508,-27.7087 0,-27.76199 -5.48845,0 -11.0302,0 -16.41208,0 0,12.46892 0,24.88455 0,37.30018 3.14387,0 6.34103,0 9.53819,0 z m 6.8206,-18.11723 h -6.8206 c 0,-3.0373 0,-7.61989 0,-10.65719 2.18472,0 4.58259,-0.0533 6.8206,0 5.54174,0.0533 5.22202,10.65719 0,10.65719 z"
           data-paper-data="{&quot;glyphName&quot;:&quot;P&quot;,&quot;glyphIndex&quot;:9,&quot;word&quot;:2}"
           id="element-id-28369"
           style="fill:#ffffff;fill-opacity:1" /><path
           d="m 485,299.67826 c -3.25044,0 -6.50089,0 -9.75133,0 V 313.2129 H 463.7389 v -13.53464 c -3.25044,0 -6.55417,0 -9.75133,0 v 37.30018 c 3.19716,0 6.50089,0 9.75133,0 v -14.97336 h 11.50977 v 14.97336 c 3.25044,0 6.50089,0 9.75133,0 z"
           data-paper-data="{&quot;glyphName&quot;:&quot;H&quot;,&quot;glyphIndex&quot;:10,&quot;lastGlyphOfWord&quot;:true,&quot;word&quot;:2}"
           id="element-id-7877"
           style="fill:#ffffff;fill-opacity:1" /></g><g
         data-paper-data="{&quot;fillRule&quot;:&quot;evenodd&quot;,&quot;fillRuleOriginal&quot;:&quot;evenodd&quot;,&quot;isIcon&quot;:true,&quot;iconStyle&quot;:&quot;standalone&quot;,&quot;selectedEffects&quot;:{&quot;container&quot;:&quot;&quot;,&quot;transformation&quot;:&quot;&quot;,&quot;pattern&quot;:&quot;&quot;},&quot;bounds&quot;:{&quot;x&quot;:204.97501274096632,&quot;y&quot;:132.59527120483793,&quot;width&quot;:140.04997451806733,&quot;height&quot;:139.88914143694885},&quot;iconType&quot;:&quot;icon&quot;,&quot;isDetailed&quot;:false,&quot;source&quot;:&quot;noun&quot;,&quot;rawIconId&quot;:&quot;4033925&quot;,&quot;suitableAsStandaloneIcon&quot;:true}"
         fill-rule="evenodd"
         id="element-id-85086"
         style="fill:#ffffff;fill-opacity:1"><path
           d="m 324.61856,153.02489 c -12.19777,-12.20428 -28.46986,-19.47873 -45.6984,-20.42961 h -0.0933 c -1.62605,0.0243 -2.95781,1.31993 -3.01605,2.95606 -0.10007,1.72631 1.20892,3.21111 2.93416,3.32829 34.37782,1.99092 60.98405,30.88397 60.13994,65.30908 -0.8439,34.42511 -28.83422,61.97947 -63.26854,62.28319 -34.43409,0.30371 -62.90595,-26.75272 -64.35702,-61.15769 -0.10565,-1.72261 -1.55941,-3.05043 -3.28451,-2.99985 -0.83447,0.0326 -1.62197,0.3948 -2.18967,1.00725 -0.45105,0.49837 -0.73243,1.12286 -0.81018,1.7837 v 0.86623 c 1.5802,31.08236 23.48727,57.42277 53.805,64.61496 30.4675,7.22788 62.03203,-6.63645 77.32205,-33.96265 15.28981,-27.3262 10.59318,-61.48001 -11.5054,-83.66465 z m -49.57412,108.10399 c 31.68912,0.1951 57.77334,-24.87443 58.83511,-56.54647 1.06199,-31.67182 -23.28473,-58.43208 -54.9156,-60.36 -1.7294,-0.0665 -3.18509,1.28146 -3.25166,3.01079 -0.0666,1.72934 1.28139,3.18514 3.01079,3.25166 23.12444,1.64917 42.3966,18.3398 47.33146,40.99171 4.93508,22.65191 -5.64738,45.84665 -25.99029,56.96579 -20.34269,11.11892 -45.57973,7.50269 -61.98145,-8.88174 -1.22161,-1.17914 -3.15772,-1.17914 -4.37934,0 -1.15681,1.23059 -1.15681,3.14874 0,4.37934 10.9385,11.01076 25.82036,17.19833 41.34097,17.18891 z m 40.66458,-57.1333 c 0.73069,-21.5089 -15.40761,-39.87016 -36.83265,-41.90546 l -0.32845,-0.0876 c -1.64335,-0.0942 -2.90898,-1.48635 -2.84657,-3.13123 0.11255,-1.6705 1.47934,-2.98036 3.15313,-3.02175 h 0.56932 c 24.53306,2.56695 42.90044,23.67427 42.05304,48.32667 -0.84718,24.65261 -20.62033,44.44898 -45.27186,45.32551 -1.70882,0.0245 -3.11721,-1.33504 -3.15313,-3.04364 -6.6e-4,-1.70772 1.35847,-3.10561 3.06554,-3.15313 21.51372,-0.57676 38.86094,-17.80026 39.59164,-39.30939 z m -19.66564,19.62426 c 8.50512,-8.49548 11.05345,-21.27856 6.45624,-32.38587 -4.59721,-11.10754 -15.43389,-18.35075 -27.45517,-18.35075 -12.02129,0 -22.85796,7.24321 -27.45517,18.35075 -4.59721,11.10732 -2.04888,23.89039 6.45624,32.38587 11.61116,11.56408 30.38671,11.56408 41.99786,0 z"
           data-paper-data="{&quot;isPathIcon&quot;:true}"
           id="element-id-30748"
           style="fill:#ffffff;fill-opacity:1" /></g></g></g></svg>
